<svg width="256" height="256" fill="none" xmlns="http://www.w3.org/2000/svg"><path fill-rule="evenodd" clip-rule="evenodd" d="M99.96 21.344c3.4-2.483 7.029-4.485 10.899-5.939C151.832.021 223.253 56.192 217.984 99.664c-2.853 23.544-25.125 43.648-53.299 59.432-36.514 20.459-59.264 20.293-78.256 27.229-2.698.987-5.325 2.115-7.901 3.47-12.73 6.682-21.003 19.52-41.653 45.264-2.763 3.445-2.734 6.426-4.686 9.701-1.466 2.456-3.133 3.963-4.608 6.019-.802 1.12-1.557.624-2.53-.142-5.086-4.002-10.176-8.002-15.262-12.002-.973-.766-1.632-1.382-.733-2.427 1.675-1.947 2.893-4.067 4.76-5.901 2.715-2.672 5.619-3.347 8.312-6.846 20.125-26.154 30.64-37.232 34.125-51.186 5.67-22.694-3.376-44.947 9.47-91.016 7.165-25.691 18.136-48.166 34.237-59.915Zm85.931 44.005a3.351 3.351 0 0 0-4.707.558 3.351 3.351 0 0 0 .557 4.709 3.35 3.35 0 0 0 4.707-.555 3.357 3.357 0 0 0-.557-4.712Zm-94.294 49.67a3.351 3.351 0 1 0-4.15 5.264 3.349 3.349 0 0 0 4.708-.555 3.356 3.356 0 0 0-.558-4.709Zm11.336 8.944a3.345 3.345 0 0 0-4.706.557 3.351 3.351 0 1 0 5.261 4.152 3.352 3.352 0 0 0-.555-4.709Zm11.334 8.941a3.347 3.347 0 0 0-4.704.557 3.354 3.354 0 0 0 .554 4.71 3.35 3.35 0 0 0 4.707-.558 3.351 3.351 0 0 0-.557-4.709Zm11.336 8.944a3.349 3.349 0 0 0-4.707.557 3.351 3.351 0 1 0 5.264 4.152 3.351 3.351 0 0 0-.557-4.709Zm6.333-101.341a3.347 3.347 0 0 0-4.707.557 3.354 3.354 0 0 0 .558 4.71 3.348 3.348 0 0 0 4.706-.56 3.354 3.354 0 0 0-.557-4.707Zm11.336 8.941a3.351 3.351 0 1 0-4.149 5.267 3.348 3.348 0 0 0 4.706-.558 3.357 3.357 0 0 0-.557-4.709Zm11.336 8.944a3.351 3.351 0 0 0-4.707.557 3.355 3.355 0 0 0 .555 4.71 3.354 3.354 0 0 0 4.152-5.267Zm11.336 8.944a3.349 3.349 0 0 0-4.707.557 3.351 3.351 0 1 0 5.262 4.152 3.355 3.355 0 0 0-.555-4.709Zm11.336 8.941a3.354 3.354 0 0 0-4.152 5.267 3.35 3.35 0 0 0 4.707-.555 3.36 3.36 0 0 0-.555-4.712Zm11.333 8.944a3.35 3.35 0 0 0-4.706.558 3.354 3.354 0 0 0 5.264 4.154 3.357 3.357 0 0 0-.558-4.712Zm-76.626-42.73a3.349 3.349 0 0 0-4.707.557 3.354 3.354 0 0 0 .557 4.71 3.349 3.349 0 0 0 4.707-.558 3.354 3.354 0 0 0-.557-4.71Zm79.352 62.602a3.353 3.353 0 1 0-4.152 5.266 3.353 3.353 0 0 0 4.152-5.266Zm-68.016-53.658a3.349 3.349 0 0 0-4.707.557 3.351 3.351 0 1 0 5.264 4.152 3.354 3.354 0 0 0-.557-4.71Zm11.336 8.941a3.354 3.354 0 1 0 .557 4.712 3.357 3.357 0 0 0-.557-4.712Zm11.336 8.944a3.351 3.351 0 0 0-4.707.557 3.354 3.354 0 0 0 .557 4.71 3.349 3.349 0 0 0 4.707-.558 3.354 3.354 0 0 0-.557-4.709Zm11.336 8.944a3.349 3.349 0 0 0-4.707.557 3.353 3.353 0 1 0 4.707-.557Zm11.336 8.944a3.349 3.349 0 0 0-4.707.557 3.35 3.35 0 0 0 .555 4.707 3.351 3.351 0 1 0 4.152-5.264Zm11.336 8.941a3.355 3.355 0 0 0-4.71.558 3.355 3.355 0 0 0 .56 4.709 3.345 3.345 0 0 0 4.704-.557 3.354 3.354 0 0 0-.554-4.71Zm-76.627-42.73a3.351 3.351 0 0 0-4.707.557 3.354 3.354 0 0 0 .558 4.71 3.35 3.35 0 0 0 4.706-.558 3.357 3.357 0 0 0-.557-4.71Zm79.349 62.602a3.348 3.348 0 0 0-4.706.558 3.351 3.351 0 1 0 5.264 4.152 3.357 3.357 0 0 0-.558-4.71Zm-68.013-53.658a3.349 3.349 0 0 0-4.707.557 3.351 3.351 0 1 0 5.262 4.152 3.355 3.355 0 0 0-.555-4.71Zm11.336 8.944a3.35 3.35 0 0 0-4.709.554 3.356 3.356 0 0 0 .557 4.71 3.351 3.351 0 1 0 4.152-5.264Zm11.336 8.941a3.353 3.353 0 1 0 .555 4.71 3.357 3.357 0 0 0-.555-4.71Zm11.333 8.944a3.348 3.348 0 0 0-4.706.557 3.351 3.351 0 1 0 4.706-.557Zm11.336 8.944a3.351 3.351 0 1 0-4.149 5.264 3.35 3.35 0 1 0 4.149-5.264Zm11.336 8.941a3.35 3.35 0 0 0-4.706.558 3.354 3.354 0 0 0 .557 4.709 3.349 3.349 0 0 0 4.707-.557 3.355 3.355 0 0 0-.558-4.71Zm-76.626-42.73a3.351 3.351 0 0 0-4.707.557 3.351 3.351 0 1 0 5.264 4.152 3.357 3.357 0 0 0-.557-4.71Zm79.349 62.602a3.352 3.352 0 1 0-4.149 5.267 3.35 3.35 0 0 0 4.706-.557 3.355 3.355 0 0 0-.557-4.71Zm-68.013-53.658a3.349 3.349 0 0 0-4.707.557A3.351 3.351 0 1 0 106.656 78a3.357 3.357 0 0 0-.557-4.71Zm11.336 8.944a3.349 3.349 0 0 0-4.707.554 3.354 3.354 0 0 0 5.264 4.155 3.356 3.356 0 0 0-.557-4.71Zm11.336 8.941a3.353 3.353 0 0 0-4.152 5.267 3.347 3.347 0 0 0 4.706-.558 3.354 3.354 0 0 0-.554-4.709Zm11.336 8.944a3.349 3.349 0 0 0-4.707.557 3.35 3.35 0 1 0 5.261 4.152 3.353 3.353 0 0 0-.554-4.709Zm11.333 8.944a3.352 3.352 0 1 0-4.145 5.264 3.352 3.352 0 0 0 4.145-5.264Zm11.336 8.941a3.352 3.352 0 1 0-4.149 5.267 3.349 3.349 0 0 0 4.706-.555 3.354 3.354 0 0 0-.557-4.712Zm-76.624-42.73A3.354 3.354 0 0 0 82 80.54a3.351 3.351 0 0 0 4.707-.557 3.356 3.356 0 0 0-.555-4.71Zm79.347 62.602a3.353 3.353 0 0 0-4.15 5.267 3.348 3.348 0 0 0 4.707-.557 3.352 3.352 0 0 0-.557-4.71ZM97.485 84.219a3.345 3.345 0 0 0-4.704.557 3.354 3.354 0 0 0 .555 4.71 3.354 3.354 0 0 0 4.71-.558 3.357 3.357 0 0 0-.56-4.71Zm11.336 8.944a3.347 3.347 0 0 0-4.706.554 3.354 3.354 0 0 0 5.264 4.155 3.354 3.354 0 0 0-.558-4.71Zm11.336 8.941a3.35 3.35 0 0 0-4.706.557 3.355 3.355 0 0 0 .557 4.71 3.35 3.35 0 0 0 4.707-.558 3.354 3.354 0 0 0-.558-4.709Zm11.336 8.944a3.347 3.347 0 0 0-4.706.557 3.352 3.352 0 1 0 4.706-.557Zm11.336 8.944a3.347 3.347 0 0 0-4.706.557 3.352 3.352 0 1 0 4.706-.557Zm11.336 8.941a3.353 3.353 0 1 0-4.148 5.27 3.353 3.353 0 0 0 4.148-5.27Zm-65.29-33.786a3.348 3.348 0 0 0-4.707.557 3.35 3.35 0 1 0 5.261 4.152 3.354 3.354 0 0 0-.554-4.71Zm11.336 8.944a3.348 3.348 0 0 0-4.707.557 3.35 3.35 0 1 0 5.261 4.152 3.353 3.353 0 0 0-.554-4.709Zm11.333 8.941a3.348 3.348 0 0 0-4.704.557 3.354 3.354 0 0 0 .555 4.71 3.348 3.348 0 0 0 4.706-.558 3.351 3.351 0 0 0-.557-4.709Zm11.336 8.944a3.351 3.351 0 1 0-4.149 5.267 3.35 3.35 0 0 0 4.706-.558 3.354 3.354 0 0 0-.557-4.709Zm11.336 8.944a3.349 3.349 0 0 0-4.707.557 3.355 3.355 0 0 0 .558 4.71 3.35 3.35 0 0 0 4.706-.558 3.354 3.354 0 0 0-.557-4.709Zm11.336 8.941a3.352 3.352 0 1 0-4.149 5.267 3.347 3.347 0 0 0 4.706-.557 3.358 3.358 0 0 0-.557-4.71Zm6.331-101.341a3.352 3.352 0 1 0-4.15 5.267 3.349 3.349 0 0 0 4.707-.558 3.351 3.351 0 0 0-.557-4.709Zm11.338 8.944a3.354 3.354 0 0 0-4.152 5.267 3.349 3.349 0 0 0 4.707-.558 3.356 3.356 0 0 0-.555-4.709Zm11.334 8.944a3.349 3.349 0 0 0-4.707.557 3.351 3.351 0 1 0 5.264 4.152 3.354 3.354 0 0 0-.557-4.709ZM87.352 175.069c10.15-3.042 19.613-5.802 20.875-9.098.701-1.83.072-3.131-1.352-4.155-1.584-1.139-4.771-1.152-7.59-1.955-8.605-2.442-14.442-7.013-18.864-14.837-1.442-2.552-2.21-5.645-3.69-6.917-1.331-1.142-2.742-1.446-4.355-.334-3.816 2.64-3.384 18.854-4.552 32.454-.536 6.253 4.013 9.834 9.96 7.834 3.101-1.042 6.368-2.032 9.568-2.992Z" fill="#000"/><path fill-rule="evenodd" clip-rule="evenodd" d="m213.437 109.04-20.874-5.792a5.57 5.57 0 0 1-.552 9.317l17.448 4.84c1.578-2.698 2.925-5.488 3.978-8.365Zm-24.698-6.853-5.568-1.544a5.615 5.615 0 0 1-.878 1.586 5.56 5.56 0 0 1-7.81.923 5.565 5.565 0 0 1-2.008-5.477L152.2 92.05a5.523 5.523 0 0 1-1.192 3.218 5.56 5.56 0 0 1-9.245-6.114l-4.23-1.174a5.557 5.557 0 0 1-5.669-.73 5.526 5.526 0 0 1-1.091-1.144l-10.074-2.795a5.562 5.562 0 1 1-9.118-2.53l-3.562-.99a5.56 5.56 0 0 1-9.414-2.61L88.34 74.332a5.571 5.571 0 0 1-2.382 8.811l4.467 1.24a5.56 5.56 0 0 1 10.528 2.92l20.251 5.619a5.565 5.565 0 0 1 8.936-3.483 5.57 5.57 0 0 1 1.717 6.437l5.104 1.416a5.553 5.553 0 0 1 4.797 1.331l10.723 2.973a5.56 5.56 0 0 1 8.941-5.197 5.564 5.564 0 0 1 .926 7.813l-.08.102 3.629 1.005a5.56 5.56 0 0 1 6.861.024c.814.64 1.4 1.464 1.747 2.365l9.912 2.75a5.575 5.575 0 0 1 .48-6.179 5.543 5.543 0 0 1 3.843-2.093ZM82.261 72.648l-10.64-2.952a206.91 206.91 0 0 0-2.776 8.699l10.92 3.029a5.569 5.569 0 0 1 2.496-8.776Z" fill="#FE8B03"/><path fill-rule="evenodd" clip-rule="evenodd" d="m205.48 123.384-19.304-5.355a5.563 5.563 0 0 1-8.971 4.995 5.568 5.568 0 0 1-.97-7.752l-3.696-1.024a5.566 5.566 0 0 1-8.323-2.309l-9.88-2.742a5.572 5.572 0 0 1-.603 5.944 5.56 5.56 0 0 1-7.81.926 5.567 5.567 0 0 1 .469-9.075l-3.803-1.053a5.56 5.56 0 0 1-8.002 1.184 5.56 5.56 0 0 1-2.107-3.99l-11.645-3.229a5.57 5.57 0 0 1 1.613 8.28 5.559 5.559 0 0 1-7.811.923 5.567 5.567 0 0 1-.922-7.814 5.55 5.55 0 0 1 4.496-2.117l-6.16-1.71a5.56 5.56 0 0 1-10.712-2.97l-34.334-9.525c-2.136 8.112-3.81 16.333-4.898 24.658l-.088.696 22.072 6.123a5.513 5.513 0 0 1 1.061-2.243 5.563 5.563 0 0 1 9.643 5.214l5.832 1.618a5.518 5.518 0 0 1 3.288.912l11.349 3.147a5.559 5.559 0 0 1 8.984-4.853 5.57 5.57 0 0 1 1.056 7.64l3.752 1.04a5.565 5.565 0 0 1 8.112 2.25l9.875 2.742a5.563 5.563 0 1 1 9.413 1.098 5.607 5.607 0 0 1-1.248 1.166l3.739 1.037a5.56 5.56 0 0 1 10.013 2.779l14.955 4.146c8.04-5.976 15.725-12.928 21.565-20.757Zm-30 1.829a5.563 5.563 0 1 1-7.811.926 5.561 5.561 0 0 1 7.811-.926Zm-11.333-8.944a5.57 5.57 0 0 1 .922 7.816 5.557 5.557 0 0 1-7.81.923 5.572 5.572 0 0 1-.926-7.816 5.567 5.567 0 0 1 7.814-.923Zm-31.286-6.957a5.566 5.566 0 0 1 .926 7.813 5.561 5.561 0 0 1-7.811.926 5.562 5.562 0 1 1 6.885-8.739Zm11.336 8.944a5.566 5.566 0 0 1 .923 7.813 5.561 5.561 0 1 1-8.733-6.89 5.557 5.557 0 0 1 7.81-.923ZM90.243 93.411a5.566 5.566 0 0 1 .922 7.813 5.56 5.56 0 0 1-7.81.925 5.563 5.563 0 0 1 6.888-8.738Zm11.336 8.944a5.566 5.566 0 0 1 .922 7.813 5.56 5.56 0 0 1-7.81.925 5.57 5.57 0 0 1-.923-7.816 5.559 5.559 0 0 1 7.811-.922Zm11.336 8.941a5.57 5.57 0 0 1 .922 7.816 5.558 5.558 0 0 1-7.81.923 5.567 5.567 0 0 1-.923-7.814 5.561 5.561 0 0 1 7.811-.925ZM215.323 102.32l-43.192-11.981a5.561 5.561 0 0 0-10.547-2.925l-4.52-1.257a5.493 5.493 0 0 0 2.557-1.816 5.56 5.56 0 1 0-8.733-6.89 5.572 5.572 0 0 0 .104 7.024l-10.269-2.851a5.56 5.56 0 0 0-9.414-2.61l-3.562-.99a5.57 5.57 0 0 0-.334-8.456 5.56 5.56 0 0 0-8.781 5.928l-10.075-2.795a5.549 5.549 0 0 0-1.093-1.146 5.552 5.552 0 0 0-5.672-.731l-4.227-1.173a5.57 5.57 0 0 0-1.434-7.04 5.56 5.56 0 0 0-9.003 4.146l-13.099-3.634c2.147-5.499 4.592-10.872 7.398-15.987a100.356 100.356 0 0 1 4.504-7.45l18.429 5.111a5.557 5.557 0 0 0 2.107 4.696 5.562 5.562 0 0 0 8.37-1.786l4.328 1.2a5.567 5.567 0 0 0-1.362 9.53 5.56 5.56 0 0 0 7.81-.925 5.568 5.568 0 0 0 .072-6.797l10.139 2.813a5.557 5.557 0 0 0 9.229 2.56l3.56.987a5.57 5.57 0 0 0 .472 8.323 5.561 5.561 0 0 0 7.811-.926 5.542 5.542 0 0 0 1.024-4.813l10.187 2.826c.266.336.576.648.928.926a5.554 5.554 0 0 0 5.416.834l4.402 1.222a5.567 5.567 0 0 0 1.518 6.888 5.56 5.56 0 0 0 8.989-3.974l21.787 6.043c3.813 8.416 5.613 16.939 4.64 24.976a40.133 40.133 0 0 1-.464 2.92ZM167.312 65.6a5.561 5.561 0 0 0-7.811.923 5.561 5.561 0 1 0 8.734 6.89 5.566 5.566 0 0 0-.923-7.813Zm11.336 8.941a5.561 5.561 0 0 0-7.811.926 5.561 5.561 0 0 0 .923 7.813 5.559 5.559 0 0 0 7.811-.923 5.57 5.57 0 0 0-.923-7.816Zm11.333 8.944a5.56 5.56 0 0 0-7.808.923 5.566 5.566 0 0 0 .923 7.816 5.559 5.559 0 0 0 7.811-.923 5.567 5.567 0 0 0-.926-7.816ZM136.027 58.64a5.562 5.562 0 0 0-7.811.925 5.568 5.568 0 0 0 .925 7.816 5.561 5.561 0 0 0 7.811-.925 5.568 5.568 0 0 0-.925-7.816Zm11.336 8.944a5.561 5.561 0 0 0-7.811.925 5.564 5.564 0 0 0 .925 7.814 5.559 5.559 0 0 0 7.811-.923 5.57 5.57 0 0 0-.925-7.816Zm-42.619-15.901a5.563 5.563 0 1 0-6.888 8.738 5.563 5.563 0 0 0 7.813-.922 5.571 5.571 0 0 0-.925-7.816Zm11.336 8.944a5.561 5.561 0 0 0-7.811.922 5.57 5.57 0 0 0 .923 7.816 5.561 5.561 0 0 0 7.811-.922 5.57 5.57 0 0 0-.923-7.816Z" fill="#E6E6E6"/><path fill-rule="evenodd" clip-rule="evenodd" d="m65.952 196.432-13.163-10.384c-1.672 2.845-3.536 5.595-5.48 8.307-3.245 4.525-6.693 8.925-10.128 13.306-4.498 5.734-9.01 11.451-13.453 17.224-1.63 2.118-3.339 3.36-5.525 4.8-1.091.72-2.139 1.424-3.075 2.344-1.555 1.531-2.755 3.44-4.128 5.16 5.059 3.974 10.11 7.958 15.168 11.931 1.352-1.747 2.89-3.309 4.037-5.229.675-1.128 1.112-2.312 1.55-3.544.882-2.47 1.685-4.424 3.357-6.507 4.557-5.685 9.045-11.424 13.55-17.149 3.442-4.374 6.903-8.766 10.533-12.987 2.168-2.525 4.392-4.981 6.757-7.272Z" fill="#FE8B03"/><path fill-rule="evenodd" clip-rule="evenodd" d="M24.739 235.323c-.448.322-.907.642-1.384.962l.776.608c.197-.536.4-1.061.608-1.57Z" fill="#E1FF00"/><path fill-rule="evenodd" clip-rule="evenodd" d="m66.192 198.069-15.253-12.018 1.424-1.811 15.253 12.019-1.424 1.81ZM50.11 189.299l5.855 19.56-1.424 1.81-5.856-19.562 1.424-1.808ZM44.965 195.832l5.854 19.563c-.475.602-.947 1.205-1.424 1.808-1.95-6.52-3.902-13.04-5.854-19.56l1.424-1.811ZM39.821 202.368l5.854 19.563-1.424 1.808-5.854-19.563 1.424-1.808ZM34.677 208.901l5.854 19.563-1.424 1.808c-1.95-6.52-3.902-13.04-5.854-19.56.475-.603.95-1.205 1.424-1.811ZM29.533 215.44 35.387 235l-1.424 1.811-5.854-19.563 1.424-1.808ZM214.957 120.168c15.552 0 28.235-12.691 28.235-28.248 0-15.56-12.685-28.25-28.235-28.25-15.552 0-28.234 12.69-28.234 28.25 0 15.557 12.682 28.248 28.234 28.248Z" fill="#000"/><path fill-rule="evenodd" clip-rule="evenodd" d="M222.565 116.725c-13.664 4.23-28.154-3.448-32.362-17.149-4.208-13.699 3.456-28.232 17.122-32.464 13.664-4.23 28.152 3.45 32.363 17.15 4.208 13.698-3.459 28.234-17.123 32.463Z" fill="#fff"/><path fill-rule="evenodd" clip-rule="evenodd" d="M222.565 116.725c-7.24 2.24-14.746 1.16-20.765-2.552-1.928-1.256-3.464-2.853-4.875-4.458-1.274-1.454-2.466-3.331-3.229-5.39-1.725-4.664-1.427-10.402.933-13.968.694-1.05 1.456-1.901 2.518-2.618 4.592-3.104 10.917-1.816 15.357.909 3.965 2.432 6.093 6.899 7.805 11.048.96 2.323 1.758 4.315 3.19 6.44 1.874 2.781 4.477 5.189 7.968 5.493l.293.027a25.843 25.843 0 0 1-9.195 5.069ZM209.787 66.53l.072.07c1.784 1.723 4.92 2.683 7.25 3.419 2.704.85 7.387.73 10.115.181.397-.08.789-.17 1.179-.277l.213-.059c-5.472-3.405-12.179-4.755-18.848-3.379l.019.046Z" fill="#000"/><path fill-rule="evenodd" clip-rule="evenodd" d="M228.341 69.69c-5.352-3.231-11.842-4.525-18.314-3.263 1.653 1.6 4.514 2.528 7.154 3.362 1.63.512 6.739 1.104 11.16-.098ZM204.875 115.76a25.78 25.78 0 0 0 17.706.888 25.807 25.807 0 0 0 8.864-4.776c-7.333-.643-10.608-10.267-11.36-12.083-2.005-4.861-4.101-8.725-7.706-10.936-7.696-4.722-16.79-3.213-19.022 5.04-2.453 12.667 6.318 18.928 11.518 21.867Z" fill="#FAFF00"/><path fill-rule="evenodd" clip-rule="evenodd" d="M197.155 110.795c.082-.264-1.528-1.694-2.888-4.107-1.747-3.099-3.355-7.83-1.968-13.816.504-2.168 1.605-4.053 3.314-5.485 4.787-4.016 12.374-3.448 17.414-.358 4.088 2.51 6.76 7.534 8.536 11.832 2.144 5.187 5.392 10.56 11.309 11.784 6.957-6.578 9.821-16.605 6.816-26.384a25.815 25.815 0 0 0-9.861-13.594c-3.374 1.098-8.979 1.682-13.91.128-2.584-.816-5.205-2.134-6.781-4.171a28.16 28.16 0 0 0-1.811.488c-13.666 4.232-21.33 18.765-17.122 32.464a25.784 25.784 0 0 0 6.952 11.219Z" fill="#000"/><path fill-rule="evenodd" clip-rule="evenodd" d="M190.192 99.517c-4.205-13.645 3.488-28.205 17.123-32.413.05-.01.752-.197 1.194-.32.059-.016.08-.04.176.067 1.766 1.936 4.078 3.333 7.086 4.282 5.65 1.782 10.517.726 14.576-.077a25.762 25.762 0 0 1 9.357 13.181c2.944 9.566.045 19.579-6.645 26.163-5.96-1.08-9.099-6.587-11.171-11.603-2.139-5.173-4.768-9.581-8.611-11.936-8.194-5.029-18.946-2.888-21.325 5.902-1.539 7.952 1.232 13.661 4.901 17.653a25.711 25.711 0 0 1-6.661-10.899Z" fill="#FAFF00"/><path fill-rule="evenodd" clip-rule="evenodd" d="M208.987 66.65c.181-.042.365-.082.546-.122-.181.04-.365.08-.546.123Z" fill="#FC0"/></svg>